<?xml version="1.0" standalone="no"?>
<!DOCTYPE svg PUBLIC "-//W3C//DTD SVG 20010904//EN"
 "http://www.w3.org/TR/2001/REC-SVG-20010904/DTD/svg10.dtd">
<svg version="1.0" xmlns="http://www.w3.org/2000/svg"
 width="40.000000pt" height="47.000000pt" viewBox="0 0 40.000000 47.000000"
 preserveAspectRatio="xMidYMid meet">
<metadata>
Created by potrace 1.16, written by Peter Selinger 2001-2019
</metadata>
<g transform="translate(0.000000,47.000000) scale(0.100000,-0.100000)"
fill="#000000" stroke="none">
<path d="M29 441 c-28 -29 -29 -32 -29 -134 0 -96 2 -106 24 -130 29 -31 64
-42 111 -34 l34 6 3 -72 3 -72 74 -3 c85 -3 115 10 137 63 20 48 18 142 -4
185 -24 48 -69 67 -179 76 l-93 7 0 -27 c0 -22 4 -26 30 -26 26 0 30 -4 30
-27 0 -51 -41 -81 -83 -62 -34 16 -47 49 -47 125 0 56 4 68 25 89 28 28 36 30
82 13 26 -10 36 -9 45 1 22 22 -26 51 -84 51 -41 0 -54 -5 -79 -29z m296 -196
c22 -21 25 -33 25 -90 0 -83 -25 -115 -90 -115 l-40 0 0 115 0 115 40 0 c30 0
47 -7 65 -25z"/>
</g>
</svg>
